<?xml version="1.0" standalone="no"?>
<!DOCTYPE svg PUBLIC "-//W3C//DTD SVG 1.1//EN" "http://www.w3.org/Graphics/SVG/1.1/DTD/svg11.dtd" >
<svg xmlns="http://www.w3.org/2000/svg">
<metadata></metadata>
<defs>
<font id="helvetica-condensedlightlight" horiz-adv-x="909" >
<font-face units-per-em="2048" ascent="1638" descent="-410" />
<missing-glyph horiz-adv-x="454" />
<glyph horiz-adv-x="2048" />
<glyph horiz-adv-x="2048" />
<glyph unicode="&#xd;" horiz-adv-x="681" />
<glyph unicode=" "  horiz-adv-x="454" />
<glyph unicode="&#x09;" horiz-adv-x="454" />
<glyph unicode="&#xa0;" horiz-adv-x="454" />
<glyph unicode="!" horiz-adv-x="454" d="M158 27h141v180h-141v-180zM166 1128q0 -190 16 -573q8 -164 8 -168h82q0 4 9 168q16 383 16 573v408h-131v-408z" />
<glyph unicode="&#x22;" horiz-adv-x="632" d="M150 1073h106v463h-106v-463zM377 1073h106v463h-106v-463z" />
<glyph unicode="#" d="M27 510h204l-131 -510h97l131 510h143l-131 -510h102l127 510h187l30 104h-192l70 269h188l31 104h-197l133 537h-96l-133 -537h-144l136 537h-99l-133 -537h-196l-31 -104h203l-70 -269h-199zM352 614l72 269h141l-69 -269h-144z" />
<glyph unicode="$" d="M51 393q0 -178 88 -292.5t264 -129.5v-168h97v168q168 18 264 121t96 270q0 92 -27.5 156t-87.5 119q-45 43 -112.5 80t-132.5 65v570q104 -23 151 -103t47 -178h119q0 68 -14.5 129.5t-50 114.5t-98 93t-154.5 58v127h-97v-137q-106 -10 -173.5 -54t-101.5 -101.5 t-45 -109.5t-11 -91q0 -156 86 -249t245 -163v-610q-123 12 -175 106.5t-52 247.5h-123v-18q-2 -14 -2 -21zM201 1090q0 111 49 178t153 84v-529q-100 37 -151 111t-51 156zM500 76v569q111 -45 173 -112.5t62 -172.5q0 -115 -61.5 -197.5t-173.5 -86.5z" />
<glyph unicode="%" horiz-adv-x="1593" d="M150 1120q0 -78 10 -141.5t38.5 -113.5t84 -79.5t139.5 -29.5q131 0 200.5 87t69.5 277q0 74 -12 138.5t-42 118t-83 84t-131 30.5q-82 0 -135 -29.5t-84 -82t-43 -117t-12 -142.5zM264 1122q0 43 5 88t20.5 88t48.5 73t86 30q51 0 83 -26.5t47 -67.5t19.5 -85t4.5 -100 q0 -127 -35 -201.5t-115 -74.5q-84 0 -124 63.5t-40 212.5zM440 -31h90l623 1549h-90zM903 362q0 -78 10.5 -141t39 -114.5t84 -81t139.5 -29.5q129 0 199.5 88t70.5 278q0 74 -12.5 138.5t-42 118t-82.5 84t-131 30.5q-82 0 -135.5 -29.5t-84 -82t-43 -117t-12.5 -142.5z M1018 362q0 45 5 89.5t20.5 88.5t48 73.5t86.5 29.5q51 0 82.5 -26.5t47 -68.5t19.5 -86t4 -100q0 -127 -34.5 -201.5t-114.5 -74.5q-84 0 -124 63.5t-40 212.5z" />
<glyph unicode="&#x26;" horiz-adv-x="1251" d="M129 397q0 -203 112.5 -318.5t307.5 -115.5q117 0 206 40t163 130l4 4q0 2 2 4l104 -155h146l-170 272l8 16q20 39 37.5 92.5t30 114t19.5 118.5t7 103h-133q-4 -182 -49 -317l-2 -4q-4 -4 -4 -8h-5l-315 499q119 88 183.5 188.5t64.5 237.5q0 127 -80 201t-203 74 q-129 0 -205.5 -75t-76.5 -208q0 -117 36.5 -199.5t122.5 -207.5q-147 -106 -229 -218t-82 -268zM262 385q0 133 57.5 222t176.5 177l356 -540q-51 -86 -125 -124t-174 -38q-131 0 -211 83t-80 220zM399 1294q0 78 41 119t115 41q158 0 158 -170q0 -96 -50.5 -181 t-130.5 -140q-59 82 -96 163.5t-37 167.5z" />
<glyph unicode="'" horiz-adv-x="405" d="M150 1073h106v463h-106v-463z" />
<glyph unicode="(" horiz-adv-x="569" d="M106 610q0 -281 73 -525.5t224 -475.5h97q-137 219 -198.5 469t-61.5 534q0 270 62.5 513t197.5 448h-97q-147 -203 -222 -453t-75 -510z" />
<glyph unicode=")" horiz-adv-x="569" d="M70 -391h96q152 207 224.5 458.5t72.5 528.5q0 258 -77 509t-220 468h-96q4 -4 4 -6q6 -10 10 -15q131 -229 188.5 -468.5t57.5 -516.5q0 -266 -63.5 -510.5t-196.5 -447.5z" />
<glyph unicode="*" horiz-adv-x="796" d="M98 1290l221 -76l-151 -213l72 -55l157 219l154 -219l74 49l-148 215l223 74l-26 92l-228 -86v234h-90v-234l-229 86z" />
<glyph unicode="+" d="M43 451h360v-451h105v451h360v104h-360v449h-105v-449h-360v-104z" />
<glyph unicode="," horiz-adv-x="454" d="M158 0h61v-27q0 -78 -11 -118.5t-50 -57.5v-76q70 18 99.5 62.5t37.5 136.5q4 49 4 146v114h-141v-180z" />
<glyph unicode="-" horiz-adv-x="681" d="M72 551h530v119h-530v-119z" />
<glyph unicode="." horiz-adv-x="454" d="M158 0h141v180h-141v-180z" />
<glyph unicode="/" horiz-adv-x="569" d="M-20 -193h110l502 1729h-113z" />
<glyph unicode="0" d="M76 758q0 -180 12 -315.5t51 -242t114 -168t196 -61.5q125 0 203.5 62.5t117.5 168t51.5 231.5t12.5 290q0 168 -11.5 300t-47.5 246.5t-112.5 184.5t-201.5 70q-86 0 -152.5 -31t-120 -113t-83 -234t-29.5 -388zM209 723q0 199 13.5 330t41 210.5t71.5 114.5t107 35 q88 0 141.5 -49t78 -137t31.5 -204t7 -290q0 -227 -25.5 -364.5t-64.5 -197.5t-76.5 -74.5t-87.5 -14.5q-129 0 -183 144.5t-54 496.5z" />
<glyph unicode="1" d="M123 1147q61 0 147 6l25 2q18 2 31 2q82 6 123 14v-1171h133v1524h-109q-16 -160 -98 -218.5t-252 -62.5v-96z" />
<glyph unicode="2" d="M70 0h741v125h-608q2 78 28.5 134t55.5 85q31 31 108 105q96 90 163 158.5t125 148.5t93 171t35 189q0 186 -100.5 297t-261.5 111q-180 0 -273.5 -125t-93.5 -328h127q2 72 13 131.5t36 107.5t70 76.5t112 28.5h21q12 -2 20 -2q96 -6 146.5 -93t50.5 -192 q0 -82 -16.5 -144t-47 -112.5t-72.5 -97.5t-118 -121q-43 -45 -78 -80q-27 -27 -74 -71q-109 -106 -152.5 -181t-49.5 -215v-106z" />
<glyph unicode="3" d="M61 397q0 -141 43 -230t106.5 -131t121 -53.5t106.5 -11.5q45 0 102.5 11.5t123 53.5t111.5 132t46 233q0 63 -12 123t-41 113t-81 93t-128 56v5q72 29 118 75.5t68.5 97t29.5 91.5t7 73q0 176 -92 286t-266 110q-84 0 -146.5 -33t-103.5 -90.5t-60.5 -131t-19.5 -155.5 h121q4 59 15.5 110.5t36 94.5t65.5 68.5t102 25.5q113 0 164 -78t51 -196q0 -305 -305 -305h-41v-111h90q90 -4 149.5 -36t91.5 -80t43 -99t11 -102q0 -63 -13 -121t-44 -104t-80 -72.5t-117 -26.5q-70 0 -118 24.5t-75.5 68.5t-40 100.5t-14.5 121.5h-125z" />
<glyph unicode="4" d="M57 410h518v-410h134v410h135v110h-135v1004h-125l-527 -992v-122zM178 520l393 764h4v-764h-397z" />
<glyph unicode="5" d="M55 365q6 -184 93.5 -289t269.5 -105q106 0 183 42t124 116t68.5 167t21.5 196q0 96 -18.5 183t-60.5 156.5t-113.5 110.5t-173.5 41q-57 0 -113.5 -18.5t-93.5 -59.5l-4 4l57 461h459v125h-570l-88 -770h113q29 68 84 107.5t127 39.5q76 0 128 -30.5t80.5 -82.5t41 -118 t12.5 -145q0 -82 -12.5 -154t-43 -131t-82.5 -94t-128 -35q-61 0 -104.5 22.5t-71.5 63.5q-45 72 -54 197h-131z" />
<glyph unicode="6" d="M76 664q0 -127 12 -240t51 -216.5t118 -170t206 -66.5q109 0 183.5 48.5t115.5 125t57.5 164.5t16.5 174q0 84 -17.5 167t-58.5 153.5t-109.5 115t-167.5 44.5q-84 0 -149.5 -37t-120.5 -109h-4q4 106 15.5 191.5t29.5 167.5q23 94 78 165.5t139 71.5q104 0 153.5 -58.5 t57.5 -166.5h123q0 152 -88 243t-234 93q-135 0 -217 -75t-121 -191.5t-50 -235.5t-17 -279q0 -51 -2 -79zM209 502q0 68 11 128t39 110.5t76 81t120 30.5q74 0 123 -34t76.5 -89t37.5 -119.5t10 -134.5q0 -66 -11 -132.5t-39.5 -125.5t-77 -97t-117.5 -38q-72 0 -121 40 t-77 104.5t-39 135t-11 140.5z" />
<glyph unicode="7" d="M104 1370h607q-106 -137 -192.5 -307t-148 -354.5t-97 -364.5t-44.5 -344h133q16 213 48 386t98 347q23 61 60.5 146.5t82.5 176.5t95.5 176t97.5 142v121h-740v-125z" />
<glyph unicode="8" d="M74 412q0 -197 98 -319t252 -122h16q66 0 124.5 10.5t122 51.5t107.5 135t44 250q-2 133 -49.5 234.5t-165.5 158.5v4q84 37 123.5 123t39.5 190q0 178 -79.5 287t-251.5 109q-160 0 -245 -108.5t-85 -274.5q0 -119 36 -204t130 -122v-4q-125 -66 -171 -164t-46 -235z M207 424q0 158 66.5 239.5t177.5 81.5q137 0 195.5 -88t58.5 -233q0 -70 -12.5 -130.5t-42 -108.5t-82 -75.5t-126.5 -27.5q-61 2 -107 30.5t-75 78t-41 110t-12 123.5zM248 1114v12q2 39 7 81t25.5 90.5t62.5 82t110 33.5q59 0 99 -22.5t63.5 -62.5t33.5 -89t10 -106 q0 -51 -10 -99.5t-33.5 -89.5t-62.5 -64.5t-94 -23.5q-106 0 -156.5 71.5t-50.5 186.5h-4z" />
<glyph unicode="9" d="M82 1010q0 -84 17.5 -167t57.5 -154t108.5 -115t166.5 -44q84 0 147.5 37t112.5 109h4q0 -109 -8 -195t-26 -164q-23 -92 -78.5 -163.5t-139.5 -71.5q-104 0 -153 58.5t-58 164.5h-122q0 -152 88 -242t229 -92q135 0 216 73t119 186.5t49 230.5t15 282q0 66 2 99 q0 125 -11 236.5t-48 214t-114.5 167t-202.5 64.5q-109 0 -182.5 -48.5t-114.5 -127t-57.5 -165.5t-16.5 -173zM215 1018q0 66 10.5 132.5t37 126.5t73.5 98t117 38q72 0 121 -41t75.5 -104.5t36.5 -135t10 -141.5q0 -68 -10 -128t-37.5 -110.5t-75 -81t-118.5 -30.5 q-74 0 -121 34t-72.5 89t-36 118.5t-10.5 135.5z" />
<glyph unicode=":" horiz-adv-x="454" d="M158 0h141v180h-141v-180zM158 887h141v180h-141v-180z" />
<glyph unicode=";" horiz-adv-x="454" d="M158 0h61v-27q0 -78 -11 -118.5t-50 -57.5v-76q70 18 99.5 62.5t37.5 136.5q4 49 4 146v114h-141v-180zM158 887h141v180h-141v-180z" />
<glyph unicode="&#x3c;" d="M39 457l833 -482v115l-722 412v10l722 399v115l-833 -479v-90z" />
<glyph unicode="=" d="M43 268h825v105h-825v-105zM43 633h825v104h-825v-104z" />
<glyph unicode="&#x3e;" d="M39 -23l833 480v90l-833 481v-115l723 -411v-10l-723 -400v-115z" />
<glyph unicode="?" horiz-adv-x="796" d="M41 1098h127q0 74 9 131t32.5 101t71 68.5t122.5 24.5q100 0 154.5 -71.5t54.5 -188.5q0 -96 -37.5 -174t-115.5 -180q-86 -115 -123 -201t-37 -205q0 -8 2 -24v-29h115q0 76 7 128t23.5 94t42 82t70.5 96q106 135 143 227t37 194q0 178 -100 271.5t-246 93.5 q-102 0 -171.5 -38t-108.5 -101.5t-55.5 -139t-16.5 -159.5zM289 0h143v180h-143v-180z" />
<glyph unicode="@" horiz-adv-x="1638" d="M53 776q0 -166 61.5 -314.5t171 -261t258 -175t316.5 -62.5q213 0 401.5 106.5t288.5 290.5h-108q-100 -137 -258 -218t-324 -81q-141 0 -269 54.5t-226.5 152t-153.5 224t-55 268.5q0 143 53 273t149.5 230.5t225.5 157t272 56.5q121 0 234.5 -40t201.5 -115 t139.5 -180.5t51.5 -230.5q0 -86 -34 -187t-75 -159q-20 -29 -51 -62.5t-66.5 -63t-73.5 -48t-71 -18.5q-47 0 -66.5 20.5t-19.5 55.5q0 23 6 48t19 60q2 6 2 8l215 643h-113l-31 -100q-31 68 -96 104.5t-143 36.5q-113 0 -208 -56t-163 -150.5t-103.5 -207t-35.5 -221.5 q0 -135 73.5 -225t204.5 -90q74 0 144.5 24.5t130.5 77.5q2 -59 50 -88.5t112 -29.5q111 0 205 64.5t167 166.5q49 70 86 178.5t37 208.5q0 297 -223 490q-104 90 -233.5 137t-266.5 47q-164 0 -311.5 -61.5t-259 -172t-175 -256t-63.5 -309.5zM477 639q0 74 32 164t89 171 t131 131t154 50q90 0 141 -53t51 -133q0 -37 -12 -74l-109 -324q-25 -74 -96.5 -126t-175.5 -52q-88 0 -146.5 66.5t-58.5 179.5z" />
<glyph unicode="A" horiz-adv-x="1024" d="M25 0h129l125 473h466l121 -473h135l-411 1536h-154zM307 592l203 776h4l203 -776h-410z" />
<glyph unicode="B" horiz-adv-x="1024" d="M127 0h211q139 0 242.5 16.5t182.5 62.5t123 134t44 229t-61.5 236.5t-190.5 130.5v4q109 39 159 132t50 216q0 88 -28 163t-89 128q-55 49 -132 66.5t-175 17.5h-336v-1536zM260 119v626h139q96 0 165 -9t121 -38.5t82 -91t30 -162.5q0 -186 -90.5 -255.5t-280.5 -69.5 h-166zM260 864v553h125q90 0 151.5 -8t111.5 -33.5t78 -78t28 -140.5q0 -90 -24.5 -148.5t-71 -90t-110 -43t-151.5 -11.5h-137z" />
<glyph unicode="C" horiz-adv-x="1138" d="M129 811q0 -174 9 -304t50 -256t135.5 -207t249.5 -81q109 0 192 46t136 126t80 179.5t27 205.5h-134q-2 -78 -16 -153.5t-46 -140t-87 -104.5t-137 -40q-113 0 -179.5 63.5t-98 166t-40 212t-8.5 256.5q0 133 8.5 240.5t38 208t94 163t170.5 62.5q74 0 128.5 -28.5 t88 -80t51 -116t21.5 -135.5h133q-2 207 -110.5 343t-306.5 136q-145 0 -236.5 -69.5t-136.5 -183.5t-60.5 -239t-15.5 -270z" />
<glyph unicode="D" horiz-adv-x="1138" d="M147 0h302q211 0 330.5 63.5t185.5 249.5q39 100 49 231.5t10 340.5q0 131 -38 275.5t-109 230.5q-84 92 -189.5 118.5t-265.5 26.5h-275v-1536zM281 119v1298h114q12 0 41 2h47q63 0 116.5 -8t92.5 -29q70 -37 111 -104.5t60.5 -151.5t23.5 -166.5t4 -189.5 q0 -94 -6 -179t-26.5 -174t-65.5 -161t-117 -104q-45 -23 -100.5 -28t-135.5 -5h-159z" />
<glyph unicode="E" d="M137 0h707v119h-574v626h512v119h-512v553h564v119h-697v-1536z" />
<glyph unicode="F" d="M141 0h133v745h512v119h-512v553h574v119h-707v-1536z" />
<glyph unicode="G" horiz-adv-x="1138" d="M94 799q0 -164 10.5 -293t51.5 -255t133 -207t243 -81q221 0 334 195h4l13 -158h106v762h-463v-119h330q-4 -117 -13 -202t-40 -169t-94.5 -137t-165.5 -53q-109 0 -175.5 71.5t-96 179t-37 212t-7.5 223.5q0 135 8.5 244.5t40 211t99 166t180.5 64.5q72 0 123 -27.5 t84 -75.5t50 -106.5t28 -128.5h127q0 94 -29 177t-84 145.5t-132 98.5t-171 36q-154 0 -248 -69.5t-139 -183.5t-57.5 -238t-12.5 -283z" />
<glyph unicode="H" horiz-adv-x="1138" d="M139 0h133v764h594v-764h133v1536h-133v-653h-594v653h-133v-1536z" />
<glyph unicode="I" horiz-adv-x="454" d="M162 0h133v1536h-133v-1536z" />
<glyph unicode="J" horiz-adv-x="796" d="M25 342q2 -78 18 -146.5t53 -120.5t96.5 -82t141.5 -30q168 0 240.5 96.5t72.5 268.5v1208h-133v-1200q0 -57 -5 -99t-21.5 -77t-51.5 -56.5t-90 -21.5q-66 0 -105.5 28.5t-57 77t-21.5 100.5t-4 128v33h-133v-107z" />
<glyph unicode="K" horiz-adv-x="1024" d="M137 0h133v582l172 225l420 -807h144l-478 915l455 621h-154l-555 -768h-4v768h-133v-1536z" />
<glyph unicode="L" d="M152 0h702v119h-569v1417h-133v-1536z" />
<glyph unicode="M" horiz-adv-x="1478" d="M150 0h133v1403h4l385 -1403h141l381 1403h4v-1403h133v1536h-217l-373 -1339h-4l-364 1339h-223v-1536z" />
<glyph unicode="N" horiz-adv-x="1138" d="M135 0h133v1315h4l570 -1315h162v1536h-134v-1319h-4l-565 1319h-166v-1536z" />
<glyph unicode="O" horiz-adv-x="1138" d="M119 811q0 -174 10 -303t51 -256t135 -208t250 -81q154 0 248 69.5t138 181.5t57.5 238t13.5 283q0 174 -10.5 303t-52 254t-136 203t-254.5 78q-145 0 -236 -69.5t-137 -183.5t-61.5 -240t-15.5 -269zM252 780q0 125 7 226.5t36 206t94.5 173t173.5 68.5 q115 0 182.5 -68.5t98 -174t38 -210t7.5 -235.5q0 -137 -8.5 -246.5t-38 -210t-94 -164t-170.5 -63.5q-113 0 -179.5 63.5t-98.5 166t-40 212t-8 256.5z" />
<glyph unicode="P" horiz-adv-x="1024" d="M156 0h133v694h203q29 0 68.5 5.5t86.5 17.5t93 33.5t81 50.5q125 102 125 334q0 227 -123 314t-395 87h-272v-1536zM289 813v604h194q170 -4 250 -66.5t80 -228.5q0 -100 -29.5 -161.5t-83 -93t-124 -43t-173.5 -11.5h-114z" />
<glyph unicode="Q" horiz-adv-x="1138" d="M119 809q0 -174 10 -303t51 -255t135.5 -207t249.5 -81q172 0 273 90l170 -139l71 90l-168 137q70 109 90.5 255.5t20.5 338.5q0 174 -10.5 303t-52 254t-136 203t-254.5 78q-145 0 -236 -70.5t-137 -183.5t-61.5 -240t-15.5 -270zM252 780q0 125 7 226.5t36 206 t94.5 173t173.5 68.5q115 0 182.5 -68.5t98 -174t38 -210t7.5 -235.5q0 -190 -14.5 -320.5t-65.5 -220.5l-156 127l-73 -92l155 -125q-63 -53 -157 -53q-113 0 -179.5 63.5t-98.5 166t-40 212t-8 256.5z" />
<glyph unicode="R" horiz-adv-x="1024" d="M129 0h133v723h137q78 0 133.5 -6t101.5 -27.5t73.5 -66.5t33.5 -119q2 -16 4 -90q6 -141 17.5 -243.5t40.5 -170.5h145v18q-23 12 -36 49t-20 87.5t-8 87.5t-3 112q-2 41 -2 49q-2 166 -42 255.5t-163 119.5v4q113 25 169 129.5t56 231.5q0 115 -34 191.5t-95 120.5 t-147 62.5t-197 18.5h-297v-1536zM262 842v575h193q164 0 237.5 -61.5t73.5 -222.5q0 -94 -33 -154.5t-79 -89.5t-88 -38t-70 -9h-234z" />
<glyph unicode="S" horiz-adv-x="1024" d="M82 434q0 -215 109.5 -343t312.5 -128q201 0 320.5 117t119.5 315q0 100 -28.5 170t-79 116t-112.5 78t-171 79h-2l-119 49q-104 45 -145 102.5t-41 167.5q0 131 68.5 214t195.5 83q123 0 193.5 -77t70.5 -212h129q0 186 -107.5 297t-283.5 111q-184 0 -291.5 -117 t-107.5 -307q0 -88 25.5 -154.5t71.5 -115t108.5 -82t148.5 -68.5q12 -4 53 -20q74 -29 121 -50.5t86 -55.5t61.5 -85t22.5 -127q0 -141 -84 -225t-225 -84q-147 0 -218 97t-71 255h-131z" />
<glyph unicode="T" d="M41 1417h348v-1417h133v1417h348v119h-829v-119z" />
<glyph unicode="U" horiz-adv-x="1138" d="M150 406q0 -217 101 -330t316 -113q121 0 204 36t130 101.5t67.5 157.5t20.5 209v1069h-133v-1102q0 -84 -13.5 -146.5t-45 -108.5t-89 -71.5t-145.5 -25.5q-164 0 -222 82t-58 258v1114h-133v-1130z" />
<glyph unicode="V" horiz-adv-x="1024" d="M29 1536l411 -1536h150l407 1536h-129l-352 -1362h-4l-344 1362h-139z" />
<glyph unicode="W" horiz-adv-x="1478" d="M35 1536l297 -1536h149l250 1315h4l256 -1315h150l303 1536h-129l-246 -1303h-4l-252 1303h-154l-251 -1296h-5l-233 1296h-135z" />
<glyph unicode="X" horiz-adv-x="1024" d="M37 0h143l330 668l332 -668h145l-397 793l381 743h-148l-313 -616l-305 616h-150l377 -743z" />
<glyph unicode="Y" horiz-adv-x="1024" d="M39 1536l405 -883v-653h134v653l409 883h-139l-338 -731l-324 731h-147z" />
<glyph unicode="Z" d="M70 0h772v119h-633l633 1302v115h-744v-119h600l-628 -1294v-123z" />
<glyph unicode="[" horiz-adv-x="569" d="M152 -213h317v94h-199v1598h195v94h-313v-1786z" />
<glyph unicode="\" horiz-adv-x="454" d="M-57 1536l501 -1729h111l-500 1729h-112z" />
<glyph unicode="]" horiz-adv-x="569" d="M100 -119v-94h318v1786h-314v-94h195v-1598h-199z" />
<glyph unicode="^" d="M135 696h96l218 686h4l223 -686h96l-276 840h-84z" />
<glyph unicode="_" horiz-adv-x="1024" d="M0 -154v-102h1024v102h-1024z" />
<glyph unicode="`" horiz-adv-x="681" d="M82 1526l283 -285h104l-227 285h-160z" />
<glyph unicode="a" horiz-adv-x="796" d="M53 291q0 -72 11.5 -128.5t40 -100.5t80 -67.5t124.5 -23.5q76 0 141.5 31t108.5 90h2l4 -20q8 -37 18.5 -53.5t41.5 -28.5q33 -6 61 -6q39 0 70 12v86q-53 0 -67.5 14.5t-14.5 61.5v694q0 74 -10.5 125t-45.5 96q-37 47 -96 66.5t-137 19.5q-145 0 -223 -80t-78 -233 h115q4 18 6 31q6 43 14 71.5t25.5 53t51.5 39t87 14.5q74 0 111.5 -29t50.5 -84q8 -49 8 -119q0 -43 -4 -69q-4 -33 -31 -45q-47 -23 -153 -64q-109 -41 -156 -63q-86 -43 -121 -115t-35 -176zM172 272q0 100 28.5 147.5t118.5 86.5q18 8 58 24q119 47 178 80v-198 q0 -76 -12.5 -139.5t-44.5 -112.5q-57 -84 -168 -84q-86 0 -122 52t-36 144z" />
<glyph unicode="b" d="M131 0h119v106h4q76 -135 244 -135q106 0 173.5 57.5t99.5 147.5t42 186.5t10 206.5q0 100 -10 197.5t-43 187.5t-97.5 147.5t-164.5 57.5q-145 0 -254 -121h-4v498h-119v-1536zM250 586q0 90 5 160.5t26.5 142.5t68.5 119t127 47t127 -51.5t68.5 -129t27 -151.5 t5.5 -162q0 -86 -5.5 -160.5t-28 -150.5t-71.5 -125t-131 -49q-74 0 -119 47t-66.5 121.5t-27.5 157.5t-6 184z" />
<glyph unicode="c" horiz-adv-x="796" d="M76 571q0 -127 9 -221t42 -182t104.5 -142.5t188.5 -54.5q84 0 145.5 32t98 88t53 128t16.5 156h-119v-4q-6 -68 -14 -113t-26.5 -87t-56.5 -68.5t-95 -26.5q-78 0 -126 45t-69.5 117.5t-26.5 145.5t-5 167q0 111 6 190.5t25.5 151.5t63.5 116t118 46q94 0 144 -75 t54 -183h117q0 152 -81 257t-226 105q-111 0 -180.5 -54t-103.5 -140t-45 -183.5t-11 -210.5z" />
<glyph unicode="d" d="M90 569q0 -111 10.5 -207t42 -186t98 -147.5t175.5 -57.5q84 0 146.5 34t96.5 101h5v-106h118v1536h-118v-498h-5q-45 57 -108.5 89t-130.5 32q-106 0 -174 -56t-101.5 -145.5t-44 -185.5t-10.5 -203zM209 547q0 90 5 164.5t26.5 155.5t69.5 134.5t126 53.5q76 0 123 -44 t69.5 -112t29 -138.5t6.5 -146.5q0 -119 -6.5 -208t-29 -164.5t-67.5 -120.5t-119 -45q-78 0 -126 47t-71.5 119.5t-29.5 147.5t-6 157z" />
<glyph unicode="e" horiz-adv-x="796" d="M72 561q0 -117 9 -210t41 -181t100.5 -143.5t178.5 -55.5q84 0 144.5 32t98.5 87t55.5 127t17.5 152h-115q-4 -61 -12 -109.5t-28.5 -90.5t-59.5 -67.5t-99 -25.5q-72 0 -114.5 41t-64 110.5t-28 151.5t-6.5 192h531v115q0 88 -14.5 171t-51.5 151.5t-100 109.5t-158 41 q-111 0 -177 -57.5t-98 -147.5t-41 -186t-9 -207zM190 676q0 63 7.5 124.5t29 120t62.5 96.5t106 38q68 0 111 -36t63.5 -94.5t26.5 -119t6 -129.5h-412z" />
<glyph unicode="f" horiz-adv-x="454" d="M37 1026h121v-1026h118v1026h142v104h-142v130q0 106 24 139t122 33v104h-23l-20 2q-137 0 -179 -62.5t-42 -222.5v-123h-121v-104z" />
<glyph unicode="g" d="M94 553q0 -115 9.5 -208t41 -179t98 -140.5t175.5 -54.5q72 0 133 26t104 83h9q0 -2 -2 -47q0 -74 -6.5 -124t-27 -94t-67.5 -71t-127 -27q-78 4 -134 42t-60 110h-121q6 -127 94 -191.5t219 -64.5q190 0 270 106.5t80 305.5v1105h-118v-102h-5q-47 68 -105 99.5 t-144 31.5q-109 0 -174.5 -59.5t-95 -152.5t-38 -188t-8.5 -206zM213 553q0 80 5 154.5t25.5 156.5t65.5 136.5t119 54.5q78 0 127 -40t71.5 -110.5t30 -158t7.5 -209.5q0 -84 -5.5 -154t-26 -140.5t-66.5 -118.5t-122 -48q-80 0 -128 48t-70.5 123t-27.5 147.5t-5 158.5z " />
<glyph unicode="h" d="M129 0h119v887q37 76 98.5 122t140.5 46q57 0 93 -20.5t53.5 -56.5t23 -79t5.5 -102v-797h118v819q0 82 -8 140.5t-41 101.5q-33 51 -94.5 74.5t-142.5 23.5q-76 -4 -140.5 -36.5t-101.5 -92.5h-4v506h-119v-1536z" />
<glyph unicode="i" horiz-adv-x="454" d="M160 1341h137v195h-137v-195zM168 0h119v1130h-119v-1130z" />
<glyph unicode="j" horiz-adv-x="454" d="M43 -276v-111q59 0 107.5 9t87.5 36q41 39 51 90t10 137v1245h-119v-1241q0 -68 -11 -105.5t-50 -51.5l-10 -2q-39 -6 -66 -6zM170 1348h137v188h-137v-188z" />
<glyph unicode="k" horiz-adv-x="796" d="M127 0h119v414l125 174l272 -588h125l-313 709l307 421h-150l-362 -532h-4v938h-119v-1536z" />
<glyph unicode="l" horiz-adv-x="454" d="M168 0h119v1536h-119v-1536z" />
<glyph unicode="m" horiz-adv-x="1366" d="M119 0h119v862q0 37 20.5 72t53 62.5t71.5 43t74 15.5q55 0 89 -18.5t51 -51.5t22.5 -73t5.5 -95v-817h118v825q0 106 63.5 169t168.5 63q82 0 118.5 -54.5t36.5 -136.5v-866h119v852q0 145 -58 226t-202 81q-82 0 -151.5 -31.5t-114.5 -95.5h-4q-47 82 -100.5 104.5 t-137.5 22.5q-74 0 -138 -33.5t-101 -95.5h-4v100h-119v-1130z" />
<glyph unicode="n" d="M133 0h119v834q0 92 73.5 156.5t166.5 64.5q57 0 90.5 -17.5t49 -48.5t20.5 -71.5t5 -96.5v-821h119v897q0 119 -75.5 190.5t-188.5 71.5q-80 0 -145.5 -37t-110.5 -102h-4v110h-119v-1130z" />
<glyph unicode="o" d="M100 592q0 -133 8.5 -229.5t42 -187.5t107.5 -147.5t195 -56.5q117 0 189.5 54.5t108 141.5t48 186.5t12.5 215.5q0 111 -12.5 209.5t-48 186.5t-107.5 141t-184 53q-111 0 -183.5 -50t-110.5 -132t-51.5 -179.5t-13.5 -205.5zM219 590q0 78 7 152.5t28.5 146.5t68 119 t121.5 47q86 0 137.5 -48.5t75 -122t29.5 -149.5t6 -168t-5 -167.5t-27.5 -150.5t-73.5 -124t-135 -49q-78 0 -126.5 45t-71 119.5t-28.5 156.5t-6 193z" />
<glyph unicode="p" d="M119 -389h123v481h4q80 -121 231 -121q117 0 185.5 58.5t99.5 151.5t38 187.5t7 225.5q0 111 -11.5 204t-46 176t-103 134t-179.5 51q-70 0 -127 -34.5t-98 -96.5h-4v102h-119v-1519zM238 571q0 106 6 187.5t28.5 149t70.5 107.5t128 40q76 0 122 -52.5t66.5 -131 t24.5 -153.5t4 -163q0 -90 -5 -161.5t-25.5 -146.5t-66.5 -123t-124 -48t-125 43t-69.5 113.5t-28.5 150t-6 188.5z" />
<glyph unicode="q" d="M94 559q0 -121 8.5 -214t40 -179t100 -140.5t181.5 -54.5q72 0 133 31t98 90h4v-479h123v1517h-118v-102h-5q-39 61 -97 96t-128 35q-115 0 -184.5 -54t-103 -143.5t-43 -185.5t-9.5 -217zM213 555q0 98 5 175t26.5 152.5t69.5 124t128 48.5q76 0 122 -44t66.5 -116 t27 -149.5t6.5 -178.5q0 -104 -6.5 -184t-28 -150.5t-69.5 -113.5t-126 -43q-76 0 -122 49t-67.5 124t-26.5 149.5t-5 156.5z" />
<glyph unicode="r" horiz-adv-x="569" d="M141 0h119v741q0 137 65.5 215t200.5 78v125q-100 0 -162.5 -37t-105.5 -123h-4v131h-113v-1130z" />
<glyph unicode="s" horiz-adv-x="796" d="M66 307q0 -164 82.5 -250t246.5 -86q150 0 236 81t86 231q0 86 -27.5 150.5t-78 111.5t-111 80.5t-154.5 76.5q-63 25 -100 67t-37 105q0 84 43 132.5t125 48.5q90 0 140 -59.5t54 -153.5h117q0 147 -81 232t-226 85q-141 0 -217 -72.5t-76 -207.5q0 -2 2 -21v-24 q2 -55 24.5 -96.5t58.5 -73t77 -54t100 -51.5q63 -31 102.5 -53.5t72 -52t53 -70.5t20.5 -94q0 -92 -51 -152.5t-144 -60.5q-104 0 -156 60.5t-61 170.5h-120z" />
<glyph unicode="t" horiz-adv-x="454" d="M33 1026h102v-846q0 -86 23.5 -128t99.5 -68q18 -6 45 -7q35 0 100 11q4 2 9 2v98q-33 -8 -60 -8q-20 0 -39 6q-37 6 -48 36t-11 71v833h158v104h-158v332h-119v-332h-102v-104z" />
<glyph unicode="u" d="M123 295q0 -72 10 -129t38 -101.5t78 -69t124 -24.5q186 0 284 133h5v-104h114v1130h-119v-860q-29 -78 -89 -135t-128 -59h-14h-14q-90 0 -130 48t-40 150v856h-119v-835z" />
<glyph unicode="v" horiz-adv-x="796" d="M35 1130l301 -1130h129l299 1130h-121l-240 -915h-4l-237 915h-127z" />
<glyph unicode="w" horiz-adv-x="1138" d="M23 1130l239 -1130h131l174 887h4l174 -887h125l246 1130h-117l-182 -901h-4l-178 901h-131l-174 -901h-4l-185 901h-118z" />
<glyph unicode="x" horiz-adv-x="796" d="M27 0h129l239 479l242 -479h133l-301 592l283 538h-138l-219 -436l-215 436h-133l277 -538z" />
<glyph unicode="y" horiz-adv-x="796" d="M35 1130l293 -1134q-29 -123 -66 -207q-20 -41 -57 -56.5t-88 -15.5h-31q-20 2 -29 2v-104q14 0 41 -2q43 -4 62 -4q68 0 119 29q66 41 101.5 128t68.5 216l8 32l307 1116h-121l-246 -915h-4l-233 915h-125z" />
<glyph unicode="z" horiz-adv-x="681" d="M37 0h608v104h-479l469 916v110h-574v-104h449l-473 -913v-113z" />
<glyph unicode="{" horiz-adv-x="718" d="M98 688q76 -6 125 -61q29 -37 36 -69t7 -89v-387q0 -76 14.5 -129t63.5 -90t97 -45t126 -8v4q-100 43 -132 94t-32 135v389q0 117 -37.5 177.5t-146.5 78.5v4q113 35 148.5 100.5t35.5 184.5v362q0 84 34 136.5t130 93.5v4q-176 0 -238.5 -68.5t-62.5 -238.5v-344 q0 -70 -10 -110t-49 -71q-35 -29 -109 -49v-4z" />
<glyph unicode="|" horiz-adv-x="454" d="M174 -512h107v2048h-107v-2048z" />
<glyph unicode="}" horiz-adv-x="718" d="M152 -186v-4q176 0 238.5 68.5t62.5 238.5v344q0 70 10 109.5t49 70.5q35 29 109 49v4q-76 6 -125 62q-29 37 -36 68.5t-7 88.5v387q0 76 -14.5 129.5t-63.5 90.5t-97.5 45t-125.5 8v-4q100 -43 131.5 -94.5t31.5 -135.5v-389q0 -117 38 -177t147 -79v-4 q-113 -35 -149 -100.5t-36 -183.5v-363q0 -84 -33.5 -136t-129.5 -93z" />
<glyph unicode="~" d="M43 438l68 -71l4 8q39 61 73.5 94t87.5 33q41 0 119 -31q14 -6 21 -8q4 0 30 -12q66 -25 112 -39.5t79 -14.5q74 0 130 47.5t101 118.5l-67 70q-31 -51 -73 -88t-91 -37q-25 0 -58.5 11t-93.5 36l-16 6q-59 25 -105.5 39t-87.5 14q-78 0 -131 -48t-102 -128z" />
<glyph unicode="&#xa1;" horiz-adv-x="454" d="M158 29v-408h131v408q0 193 -17 575q-8 162 -8 166h-82q0 -4 -8 -166q-16 -383 -16 -575zM158 950h141v180h-141v-180z" />
<glyph unicode="&#xa2;" d="M127 565q0 -76 5 -153.5t23.5 -160.5t55.5 -147.5t94 -89.5l-65 -307h90l59 275q39 -8 88 -9q86 0 146.5 32t96.5 87t51 126t15 153h-114l-2 -15q-6 -63 -14.5 -107t-28 -84t-55 -64.5t-93.5 -24.5q-36 0 -67 12l190 889q55 -61 62 -191h114q-2 104 -40 188.5t-109 127.5 l59 272h-90l-51 -237q-35 8 -76 8q-111 0 -180.5 -53.5t-104 -139.5t-47 -182t-12.5 -205zM252 545q0 88 4 156.5t19.5 139t48 122t88.5 65.5q35 8 65 8q27 0 47 -6l-190 -887q-49 53 -65.5 159t-16.5 243z" />
<glyph unicode="&#xa3;" d="M39 674h213q33 -98 33 -203q0 -139 -56.5 -236.5t-177.5 -201.5l68 -76q53 39 102 60.5t105 21.5q29 0 59 -6q45 -10 137 -35q68 -18 76 -21q31 -8 66 -8q59 0 119.5 19.5t93.5 46.5l-46 96q-84 -51 -157 -51q-33 0 -58.5 6t-68.5 18q-74 29 -150 29q-47 0 -123 -14 q-2 0 -18 -4l-4 4q76 66 113.5 170t37.5 219q0 90 -22 166h283v84h-314l-22 59q-43 104 -65.5 177t-22.5 149q0 117 59 187.5t172 70.5q70 0 117 -27.5t74.5 -77t40 -106.5t14.5 -125h123q-2 100 -23.5 180t-66.5 139.5t-118 92t-177 32.5q-70 0 -132.5 -25.5t-109.5 -71.5 t-72.5 -107.5t-25.5 -133.5q0 -84 20.5 -178t83.5 -235h-180v-84z" />
<glyph unicode="&#xa4;" d="M-6 563q0 -78 21.5 -142.5t66.5 -129.5l-80 -78l96 -98l82 80q129 -92 266 -93q162 0 287 93l80 -80l96 98l-80 78q45 68 67 129t22 135q0 84 -20.5 152.5t-68.5 134.5l80 80l-96 96l-80 -78q-66 45 -131 67.5t-139 22.5q-162 0 -283 -90l-82 78l-96 -96l80 -80 q-47 -66 -67.5 -131.5t-20.5 -147.5zM125 563q0 143 96 238.5t242 95.5q66 0 125 -26.5t104 -72.5t69.5 -106t24.5 -123q0 -70 -25.5 -130t-71.5 -106t-106.5 -71.5t-129.5 -25.5q-66 0 -125.5 26.5t-105.5 71.5t-71.5 104.5t-25.5 124.5z" />
<glyph unicode="&#xa5;" d="M-18 1511l407 -868v-70h-283v-98h283v-106h-283v-99h283v-270h133v270h277v99h-277v106h281v98h-281v70l408 868h-139l-338 -718l-324 718h-147z" />
<glyph unicode="&#xa6;" horiz-adv-x="454" d="M174 -358h107v716h-107v-716zM174 666h107v716h-107v-716z" />
<glyph unicode="&#xa7;" d="M53 737q0 -92 40 -157.5t124 -128.5l315 -240q61 -45 94 -98.5t33 -122.5q0 -80 -53 -139.5t-151 -59.5t-153.5 67.5t-55.5 188.5h-111q0 -156 87 -252t237 -96q139 0 227 83t88 220q0 70 -28.5 134.5t-79.5 109.5q86 53 139 126.5t53 162.5q0 92 -50 183t-187 183 l-230 156q-68 47 -102.5 98t-34.5 121l2 12v15q6 88 59.5 133t141.5 45q102 0 152 -73t57 -181h112q-6 152 -90 249t-231 97q-74 0 -121 -14.5t-96 -57.5q-47 -41 -74 -96t-27 -117q0 -82 24.5 -135t86.5 -121q-96 -61 -146.5 -128.5t-50.5 -166.5zM156 743q0 78 45 140.5 t118 93.5l281 -203q78 -55 117 -109.5t39 -134.5q0 -70 -46 -130t-114 -91l-315 223q-66 47 -95.5 92.5t-29.5 118.5z" />
<glyph unicode="&#xa8;" horiz-adv-x="681" d="M115 1264h131v209h-131v-209zM438 1264h131v209h-131v-209z" />
<glyph unicode="&#xa9;" horiz-adv-x="1638" d="M35 770q0 -164 60.5 -311.5t169 -259t252.5 -174t304 -62.5t302.5 62.5t251 174t169 259t60.5 311.5q0 162 -60.5 309.5t-169 259t-251 174t-302.5 62.5t-303 -62.5t-252.5 -174t-170 -259t-60.5 -309.5zM133 770q0 143 53.5 272t148.5 227.5t220 153t266 54.5 q139 0 264 -54.5t221.5 -153t148.5 -227.5t52 -272q0 -145 -53 -274t-148.5 -228.5t-220.5 -154t-264 -54.5t-265 54.5t-221 153t-148.5 228.5t-53.5 275zM422 776q0 -98 30.5 -183t89 -148.5t138.5 -98.5t176 -35q139 0 243.5 86t119.5 226h-113q-12 -98 -84 -156.5 t-166 -58.5q-145 0 -232 109.5t-87 260.5q0 158 82.5 262.5t232.5 104.5q94 0 166 -58.5t88 -150.5h113q-23 141 -124.5 222t-244.5 81q-197 0 -312.5 -129t-115.5 -334z" />
<glyph unicode="&#xaa;" horiz-adv-x="544" d="M43 1051q0 -94 39 -143.5t129 -49.5q102 0 162 72l2 -2l4 -13q4 -18 10 -28t27 -19q6 0 20 -2q12 -2 21 -2q27 0 45 8v52q-33 0 -43 8t-10 39v418q0 98 -45.5 141t-143.5 43q-92 0 -143 -48t-51 -141h73q2 6 4 19q8 51 30 78.5t85 27.5q70 0 90.5 -33.5t20.5 -105.5 q0 -35 -2 -44t-13 -17q-4 -4 -8 -9q-31 -12 -100 -36q-70 -25 -101 -39q-55 -27 -78.5 -70t-23.5 -104zM121 1038q0 59 19.5 88t76.5 54q102 37 148 63v-174q-4 -63 -39 -106t-101 -43q-55 0 -79.5 32.5t-24.5 85.5z" />
<glyph unicode="&#xab;" horiz-adv-x="1024" d="M170 483l289 -217v127l-207 162l207 166v123l-289 -217v-144zM553 483l289 -217v127l-209 162l209 166v123l-289 -217v-144z" />
<glyph unicode="&#xac;" d="M43 633h721v-443h104v547h-825v-104z" />
<glyph unicode="&#xad;" horiz-adv-x="681" d="M72 551h530v119h-530v-119z" />
<glyph unicode="&#xae;" horiz-adv-x="1638" d="M35 770q0 -164 60.5 -311.5t169 -259t252.5 -174t304 -62.5t302.5 62.5t251 174t169 259t60.5 311.5q0 162 -60.5 309.5t-169 259t-251 174t-302.5 62.5t-303 -62.5t-252.5 -174t-170 -259t-60.5 -309.5zM133 770q0 143 53.5 272t148.5 227.5t220 153t266 54.5 q139 0 264 -54.5t221.5 -153t148.5 -227.5t52 -272q0 -145 -53 -274t-148.5 -228.5t-220.5 -154t-264 -54.5t-265 54.5t-221 153t-148.5 228.5t-53.5 275zM530 319h107v416h197l249 -416h127l-264 416q127 4 202 62.5t75 183.5q0 59 -26 112.5t-73 82.5q-45 29 -95 37 t-118 8h-381v-902zM637 821v318h250q47 0 86 -5.5t70.5 -21.5t51 -48t19.5 -81q0 -102 -74.5 -132t-238.5 -30h-164z" />
<glyph unicode="&#xaf;" horiz-adv-x="681" d="M39 1321h606v92h-606v-92z" />
<glyph unicode="&#xb0;" horiz-adv-x="819" d="M102 1217q0 -61 24 -118t67 -100t99 -66.5t118 -23.5q61 0 117.5 23.5t99.5 65.5t66.5 99t23.5 120q0 61 -23.5 117.5t-66.5 99.5t-99.5 66.5t-117.5 23.5t-117.5 -23.5t-99.5 -66.5t-67 -98.5t-24 -118.5zM184 1217q0 94 65.5 159.5t158.5 65.5q94 0 160.5 -66.5 t66.5 -158.5q0 -94 -66.5 -160t-158.5 -66q-94 0 -160 65.5t-66 160.5z" />
<glyph unicode="&#xb1;" d="M43 0h825v104h-825v-104zM43 553h360v-348h105v348h360v104h-360v347h-105v-347h-360v-104z" />
<glyph unicode="&#xb2;" horiz-adv-x="544" d="M33 610h481v92h-395q2 35 20.5 68t34.5 47q25 23 72 64q131 115 199.5 201.5t68.5 197.5t-64.5 177.5t-170.5 66.5q-117 0 -177.5 -75t-60.5 -196h98q4 88 32 141.5t97 53.5q6 0 11 -2h12q57 -6 88 -56.5t31 -111.5q0 -84 -30 -131t-112 -119q-49 -43 -71 -65l-21 -19 q-80 -78 -109.5 -127t-33.5 -143v-64z" />
<glyph unicode="&#xb3;" horiz-adv-x="544" d="M25 850q0 -84 28.5 -138.5t69.5 -79t79 -31.5t68 -7q29 0 67 7t81 31.5t72.5 79t29.5 140.5q0 84 -39 147.5t-133 81.5v4q47 18 77 46t45 59t19.5 55.5t4.5 42.5q0 106 -59.5 172t-174.5 66q-104 0 -158.5 -71t-54.5 -175h88q6 76 33 121t94 45q74 0 102.5 -43t28.5 -117 q0 -84 -49 -122t-127 -38h-37l2 -92h60q57 -2 93 -19.5t52 -43t21.5 -54t5.5 -61.5q0 -82 -34 -131t-114 -49q-86 0 -116.5 44t-32.5 130h-92z" />
<glyph unicode="&#xb4;" horiz-adv-x="681" d="M213 1241h104l283 285h-160z" />
<glyph unicode="&#xb5;" d="M123 -387h119v407q57 -49 131 -49q186 0 284 133h5v-104h114v1130h-119v-860q-29 -78 -89 -135t-128 -59h-14h-14q-90 0 -130 48t-40 150v856h-119v-1517z" />
<glyph unicode="&#xb6;" horiz-adv-x="1155" d="M109 1139q0 -78 26.5 -148.5t75.5 -125t114.5 -85t143.5 -30.5v-988h119v1637h200v-1637h119v1774h-375q-199 -4 -311 -99.5t-112 -297.5z" />
<glyph unicode="&#xb7;" horiz-adv-x="454" d="M158 412h141v180h-141v-180z" />
<glyph unicode="&#xb8;" horiz-adv-x="681" d="M104 -385q94 -39 185 -39q92 0 160.5 41t68.5 127q0 68 -46 107.5t-122 39.5q-8 0 -29.5 -4t-31.5 -8l-4 4l94 117h-78l-123 -168l31 -27q43 14 84 15q49 0 78.5 -20.5t29.5 -57.5q0 -49 -42 -72.5t-95 -23.5q-41 0 -121 26l-8 4z" />
<glyph unicode="&#xb9;" horiz-adv-x="544" d="M117 1298q33 0 69 2q31 2 41 3q8 2 39 4q39 2 62 6v-703h102v914h-86q-10 -96 -63.5 -130t-163.5 -38v-58z" />
<glyph unicode="&#xba;" horiz-adv-x="544" d="M39 1237q0 -78 7 -139.5t29.5 -113.5t70 -83t124.5 -31q74 0 121 30t70.5 80t33 110.5t9.5 132.5q0 70 -8.5 129t-33 109t-70.5 81t-118 31q-70 0 -116.5 -27.5t-72.5 -76t-36 -106.5t-10 -126zM119 1204v43q0 49 6 93t21.5 83t45 62.5t72.5 23.5q55 0 87 -26.5 t46.5 -68.5t18.5 -87t4 -104q0 -68 -3 -113t-18.5 -86t-47.5 -66.5t-87 -25.5q-4 0 -12 2h-16q-70 20 -90.5 77.5t-24.5 155.5v7q0 6 -2 30z" />
<glyph unicode="&#xbb;" horiz-adv-x="1024" d="M182 266l289 217v144l-289 217v-123l209 -166l-209 -162v-127zM565 266l289 217v144l-289 217v-123l207 -166l-207 -162v-127z" />
<glyph unicode="&#xbc;" horiz-adv-x="1363" d="M39 1298q33 0 70 2q31 2 41 3q8 2 38 4q39 2 62 6v-703h102v914h-86q-10 -96 -63 -130t-164 -38v-58zM188 0h107l922 1524h-103zM817 236h336v-236h96v236h78v75h-78v602h-96l-336 -587v-90zM895 311l254 459h4v-459h-258z" />
<glyph unicode="&#xbd;" horiz-adv-x="1363" d="M4 1298q33 0 70 2q31 2 41 3q8 2 39 4q39 2 61 6v-703h102v914h-86q-10 -96 -63 -130t-164 -38v-58zM154 0h106l922 1524h-103zM879 0h481v92h-395q2 35 20.5 68t34.5 47q25 23 72 63q131 115 199.5 202t68.5 198t-64.5 177t-171.5 66q-117 0 -177 -74.5t-60 -195.5h98 q4 88 31.5 141.5t97.5 53.5q6 0 10 -2h13q57 -6 87.5 -56.5t30.5 -111.5q0 -84 -29.5 -131.5t-111.5 -118.5q-49 -43 -72 -66l-20 -18q-80 -78 -109.5 -127t-33.5 -144v-63z" />
<glyph unicode="&#xbe;" horiz-adv-x="1363" d="M33 848q0 -84 28.5 -138.5t69.5 -79t79 -31.5t69 -7q29 0 66.5 7t80.5 31.5t72.5 79t29.5 140.5q0 84 -38.5 147.5t-133.5 81.5v4q47 18 77 46t45.5 59t19.5 55.5t4 42.5q0 106 -59.5 172t-174.5 66q-104 0 -158.5 -71t-54.5 -175h88q6 76 33 121t94 45q74 0 102.5 -43 t28.5 -117q0 -84 -49 -122t-127 -38h-37l2 -92h60q57 -2 93 -19.5t52.5 -43t21.5 -54t5 -61.5q0 -82 -34 -131t-114 -49q-86 0 -116.5 44t-32.5 130h-92zM254 0h106l922 1524h-102zM821 236h336v-236h96v236h78v75h-78v602h-96l-336 -587v-90zM899 311l254 459h4v-459h-258z " />
<glyph unicode="&#xbf;" horiz-adv-x="796" d="M41 -49q0 -178 100.5 -271.5t245.5 -93.5q102 0 172 38t109 101.5t55 139.5t16 160h-127q0 -74 -8 -131.5t-32.5 -101.5t-71.5 -68.5t-123 -24.5q-100 0 -154.5 71.5t-54.5 188.5q0 98 38 175t116 179q86 115 122.5 201t36.5 205q0 8 -2 24v29h-114q0 -76 -7.5 -128 t-24 -94t-42 -81t-70.5 -96q-106 -135 -143 -227.5t-37 -194.5zM348 950h144v180h-144v-180z" />
<glyph unicode="&#xc0;" horiz-adv-x="1024" d="M25 0h129l125 473h466l121 -473h135l-411 1536h-154zM254 1931l283 -284h104l-227 284h-160zM307 592l203 776h4l203 -776h-410z" />
<glyph unicode="&#xc1;" horiz-adv-x="1024" d="M25 0h129l125 473h466l121 -473h135l-411 1536h-154zM307 592l203 776h4l203 -776h-410zM385 1647h104l283 284h-160z" />
<glyph unicode="&#xc2;" horiz-adv-x="1024" d="M25 0h129l125 473h466l121 -473h135l-411 1536h-154zM193 1647h131l170 208l168 -208h133l-234 284h-137zM307 592l203 776h4l203 -776h-410z" />
<glyph unicode="&#xc3;" horiz-adv-x="1024" d="M25 0h129l125 473h466l121 -473h135l-411 1536h-154zM193 1671h75q2 6 4 8q12 37 25.5 57.5t42.5 32.5q12 4 27 5q29 0 59.5 -11.5t69.5 -27.5l14 -6q49 -25 84 -36.5t72 -11.5q26 1 57 9q51 25 78.5 76t34.5 114h-78q-10 -51 -28.5 -75.5t-59.5 -24.5q-18 0 -45 6 q-31 8 -95 37q-53 25 -86.5 36t-66.5 11q-74 0 -123 -57.5t-61 -141.5zM307 592l203 776h4l203 -776h-410z" />
<glyph unicode="&#xc4;" horiz-adv-x="1024" d="M25 0h129l125 473h466l121 -473h135l-411 1536h-154zM287 1669h131v209h-131v-209zM307 592l203 776h4l203 -776h-410zM610 1669h131v209h-131v-209z" />
<glyph unicode="&#xc5;" horiz-adv-x="1024" d="M25 0h129l125 473h466l121 -473h135l-411 1536h-154zM307 592l203 776h4l203 -776h-410zM309 1815q0 -82 60.5 -143.5t142.5 -61.5t143.5 61.5t61.5 143.5t-61.5 143t-143.5 61t-142.5 -61.5t-60.5 -142.5zM377 1815q0 55 40 95t95 40t95 -41t40 -94t-41 -94.5t-94 -41.5 t-94 40t-41 96z" />
<glyph unicode="&#xc6;" horiz-adv-x="1478" d="M12 0h138l159 469h396v-469h704v119h-571v620h514v119h-514v559h565v119h-848zM350 588l291 829h64v-829h-355z" />
<glyph unicode="&#xc7;" horiz-adv-x="1138" d="M129 811q0 -168 8 -293t46 -249t123 -208t229 -94l-99 -135l31 -27q43 14 84 15q49 0 78.5 -20.5t29.5 -57.5q0 -49 -42 -72.5t-95 -23.5q-41 0 -121 26l-8 4l-31 -61q94 -39 185 -39q92 0 160.5 41t68.5 127q0 68 -46 107.5t-122 39.5q-8 0 -29.5 -4t-31.5 -8l-4 4 l67 82q98 8 174 57.5t126.5 127t74 173t23.5 197.5h-134q-2 -78 -16 -153.5t-46 -140t-87 -104.5t-137 -40q-113 0 -179.5 63.5t-98 166t-40 212t-8.5 256.5q0 133 8.5 240.5t38 208t94 163t170.5 62.5q74 0 128.5 -28.5t88 -80t51 -116t21.5 -135.5h133q-2 207 -110.5 343 t-306.5 136q-145 0 -236.5 -69.5t-136.5 -183.5t-60.5 -239t-15.5 -270z" />
<glyph unicode="&#xc8;" d="M137 0h707v119h-574v626h512v119h-512v553h564v119h-697v-1536zM197 1931l282 -284h105l-228 284h-159z" />
<glyph unicode="&#xc9;" d="M137 0h707v119h-574v626h512v119h-512v553h564v119h-697v-1536zM328 1647h104l283 284h-160z" />
<glyph unicode="&#xca;" d="M137 0h707v119h-574v626h512v119h-512v553h564v119h-697v-1536zM156 1647h131l170 208l168 -208h133l-234 284h-137z" />
<glyph unicode="&#xcb;" d="M137 0h707v119h-574v626h512v119h-512v553h564v119h-697v-1536zM229 1669h131v209h-131v-209zM553 1669h131v209h-131v-209z" />
<glyph unicode="&#xcc;" horiz-adv-x="454" d="M-31 1931l283 -284h104l-227 284h-160zM162 0h133v1536h-133v-1536z" />
<glyph unicode="&#xcd;" horiz-adv-x="454" d="M100 1647h105l282 284h-159zM162 0h133v1536h-133v-1536z" />
<glyph unicode="&#xce;" horiz-adv-x="454" d="M-72 1647h131l170 208l168 -208h133l-233 284h-137zM162 0h133v1536h-133v-1536z" />
<glyph unicode="&#xcf;" horiz-adv-x="454" d="M2 1669h131v209h-131v-209zM162 0h133v1536h-133v-1536zM326 1669h131v209h-131v-209z" />
<glyph unicode="&#xd0;" horiz-adv-x="1138" d="M0 819h147v-819h302q209 0 326.5 63.5t189.5 249.5q39 100 49 231.5t10 340.5q0 59 -9 130.5t-27.5 143.5t-47.5 133.5t-63 98.5q-84 92 -189.5 118.5t-265.5 26.5h-275v-606h-147v-111zM281 119v700h278v111h-278v487h114q104 0 179 -6t118 -29q119 -63 159 -211.5 t40 -400.5q0 -94 -6 -178t-26.5 -173t-65.5 -161t-117 -106q-45 -23 -100.5 -28t-135.5 -5h-159z" />
<glyph unicode="&#xd1;" horiz-adv-x="1138" d="M135 0h133v1315h4l570 -1315h162v1536h-134v-1319h-4l-565 1319h-166v-1536zM250 1671h76q2 6 4 8q12 37 25.5 57.5t41.5 32.5q12 4 27 5q29 0 59.5 -11.5t69.5 -27.5l14 -6q49 -25 84 -36.5t72 -11.5q26 1 57 9q51 25 79 76t34 114h-78q-10 -51 -28.5 -75.5t-59.5 -24.5 q-18 0 -45 6q-31 8 -94 37q-53 25 -87 36t-67 11q-74 0 -123 -57.5t-61 -141.5z" />
<glyph unicode="&#xd2;" horiz-adv-x="1138" d="M119 811q0 -174 10 -303t51 -256t135 -208t250 -81q154 0 248 69.5t138 181.5t57.5 238t13.5 283q0 174 -10.5 303t-52 254t-136 203t-254.5 78q-145 0 -236 -69.5t-137 -183.5t-61.5 -240t-15.5 -269zM252 780q0 125 7 226.5t36 206t94.5 173t173.5 68.5 q115 0 182.5 -68.5t98 -174t38 -210t7.5 -235.5q0 -137 -8.5 -246.5t-38 -210t-94 -164t-170.5 -63.5q-113 0 -179.5 63.5t-98.5 166t-40 212t-8 256.5zM311 1931l283 -284h104l-227 284h-160z" />
<glyph unicode="&#xd3;" horiz-adv-x="1138" d="M119 811q0 -174 10 -303t51 -256t135 -208t250 -81q154 0 248 69.5t138 181.5t57.5 238t13.5 283q0 174 -10.5 303t-52 254t-136 203t-254.5 78q-145 0 -236 -69.5t-137 -183.5t-61.5 -240t-15.5 -269zM252 780q0 125 7 226.5t36 206t94.5 173t173.5 68.5 q115 0 182.5 -68.5t98 -174t38 -210t7.5 -235.5q0 -137 -8.5 -246.5t-38 -210t-94 -164t-170.5 -63.5q-113 0 -179.5 63.5t-98.5 166t-40 212t-8 256.5zM442 1647h105l282 284h-159z" />
<glyph unicode="&#xd4;" horiz-adv-x="1138" d="M119 811q0 -174 10 -303t51 -256t135 -208t250 -81q154 0 248 69.5t138 181.5t57.5 238t13.5 283q0 174 -10.5 303t-52 254t-136 203t-254.5 78q-145 0 -236 -69.5t-137 -183.5t-61.5 -240t-15.5 -269zM252 780q0 125 7 226.5t36 206t94.5 173t173.5 68.5 q115 0 182.5 -68.5t98 -174t38 -210t7.5 -235.5q0 -137 -8.5 -246.5t-38 -210t-94 -164t-170.5 -63.5q-113 0 -179.5 63.5t-98.5 166t-40 212t-8 256.5zM270 1647h131l170 208l168 -208h133l-233 284h-137z" />
<glyph unicode="&#xd5;" horiz-adv-x="1138" d="M119 811q0 -174 10 -303t51 -256t135 -208t250 -81q154 0 248 69.5t138 181.5t57.5 238t13.5 283q0 174 -10.5 303t-52 254t-136 203t-254.5 78q-145 0 -236 -69.5t-137 -183.5t-61.5 -240t-15.5 -269zM250 1671h76q2 6 4 8q12 37 25.5 57.5t41.5 32.5q12 4 27 5 q29 0 59.5 -11.5t69.5 -27.5l14 -6q49 -25 84 -36.5t72 -11.5q26 1 57 9q51 25 79 76t34 114h-78q-10 -51 -28.5 -75.5t-59.5 -24.5q-18 0 -45 6q-31 8 -94 37q-53 25 -87 36t-67 11q-74 0 -123 -57.5t-61 -141.5zM252 780q0 125 7 226.5t36 206t94.5 173t173.5 68.5 q115 0 182.5 -68.5t98 -174t38 -210t7.5 -235.5q0 -137 -8.5 -246.5t-38 -210t-94 -164t-170.5 -63.5q-113 0 -179.5 63.5t-98.5 166t-40 212t-8 256.5z" />
<glyph unicode="&#xd6;" horiz-adv-x="1138" d="M119 811q0 -174 10 -303t51 -256t135 -208t250 -81q154 0 248 69.5t138 181.5t57.5 238t13.5 283q0 174 -10.5 303t-52 254t-136 203t-254.5 78q-145 0 -236 -69.5t-137 -183.5t-61.5 -240t-15.5 -269zM252 780q0 125 7 226.5t36 206t94.5 173t173.5 68.5 q115 0 182.5 -68.5t98 -174t38 -210t7.5 -235.5q0 -137 -8.5 -246.5t-38 -210t-94 -164t-170.5 -63.5q-113 0 -179.5 63.5t-98.5 166t-40 212t-8 256.5zM344 1669h131v209h-131v-209zM668 1669h131v209h-131v-209z" />
<glyph unicode="&#xd7;" d="M43 154l76 -72l336 336l338 -340l75 74l-340 340l340 339l-75 72l-338 -338l-336 338l-76 -74l338 -337z" />
<glyph unicode="&#xd8;" horiz-adv-x="1138" d="M53 -4l86 -55l107 180q51 -74 130 -116t189 -42q154 0 248 69.5t138 181.5t57.5 238t13.5 283q0 193 -12.5 329t-59.5 249l133 223l-92 41l-96 -160q-51 74 -132 115t-194 41q-145 0 -236 -69.5t-137 -183.5t-61.5 -240t-15.5 -269q0 -190 11 -329.5t58 -256.5zM252 782 q0 125 7 226.5t36 205t94.5 172t173.5 68.5q92 0 153.5 -44t98.5 -126l-534 -903q-18 82 -23.5 174t-5.5 227zM324 252l534 903q20 -88 25.5 -180t5.5 -207q0 -137 -8.5 -247.5t-38 -211t-94 -164t-170.5 -63.5q-92 0 -155 45t-99 125z" />
<glyph unicode="&#xd9;" horiz-adv-x="1138" d="M150 406q0 -217 101 -330t316 -113q121 0 204 36t130 101.5t67.5 157.5t20.5 209v1069h-133v-1102q0 -84 -13.5 -146.5t-45 -108.5t-89 -71.5t-145.5 -25.5q-164 0 -222 82t-58 258v1114h-133v-1130zM311 1931l283 -284h104l-227 284h-160z" />
<glyph unicode="&#xda;" horiz-adv-x="1138" d="M150 406q0 -217 101 -330t316 -113q121 0 204 36t130 101.5t67.5 157.5t20.5 209v1069h-133v-1102q0 -84 -13.5 -146.5t-45 -108.5t-89 -71.5t-145.5 -25.5q-164 0 -222 82t-58 258v1114h-133v-1130zM442 1647h105l282 284h-159z" />
<glyph unicode="&#xdb;" horiz-adv-x="1138" d="M150 406q0 -217 101 -330t316 -113q121 0 204 36t130 101.5t67.5 157.5t20.5 209v1069h-133v-1102q0 -84 -13.5 -146.5t-45 -108.5t-89 -71.5t-145.5 -25.5q-164 0 -222 82t-58 258v1114h-133v-1130zM270 1647h131l170 208l168 -208h133l-233 284h-137z" />
<glyph unicode="&#xdc;" horiz-adv-x="1138" d="M150 406q0 -217 101 -330t316 -113q121 0 204 36t130 101.5t67.5 157.5t20.5 209v1069h-133v-1102q0 -84 -13.5 -146.5t-45 -108.5t-89 -71.5t-145.5 -25.5q-164 0 -222 82t-58 258v1114h-133v-1130zM344 1669h131v209h-131v-209zM668 1669h131v209h-131v-209z" />
<glyph unicode="&#xdd;" horiz-adv-x="1024" d="M39 1536l405 -883v-653h134v653l409 883h-139l-338 -731l-324 731h-147zM385 1647h104l283 284h-160z" />
<glyph unicode="&#xde;" horiz-adv-x="1024" d="M156 0h133v438h194q94 0 177 23.5t147.5 75t101.5 132.5t37 191q0 119 -41 201t-105.5 130t-136 68.5t-137.5 20.5h-237v256h-133v-1536zM289 557v604h194q160 0 245 -76.5t85 -224.5q0 -147 -85 -225t-245 -78h-194z" />
<glyph unicode="&#xdf;" d="M135 0h119v1130q0 80 4 133.5t22.5 100.5t60.5 75.5t112 28.5q61 0 101 -21.5t61.5 -60t28.5 -86t7 -108.5q0 -137 -46 -196.5t-179 -59.5v-105q150 0 206 -89t56 -300q0 -88 -6 -152.5t-23.5 -112.5t-51.5 -74.5t-87 -26.5q-29 0 -60.5 16.5t-56.5 44.5v-127 q37 -16 71 -26.5t63 -12.5q88 0 143 44t83 114t36 146.5t8 160.5q0 90 -8 162t-29.5 132.5t-59.5 100t-98 54.5q90 49 122 130t32 183q0 162 -76 268.5t-229 106.5q-100 0 -166 -38t-100.5 -102.5t-47 -146.5t-12.5 -182v-1104z" />
<glyph unicode="&#xe0;" horiz-adv-x="796" d="M53 291q0 -72 11.5 -128.5t40 -100.5t80 -67.5t124.5 -23.5q76 0 141.5 31t108.5 90h2l4 -20q8 -37 18.5 -53.5t41.5 -28.5q33 -6 61 -6q39 0 70 12v86q-53 0 -67.5 14.5t-14.5 61.5v694q0 74 -10.5 125t-45.5 96q-37 47 -96 66.5t-137 19.5q-145 0 -223 -80t-78 -233 h115q4 18 6 31q6 43 14 71.5t25.5 53t51.5 39t87 14.5q74 0 111.5 -29t50.5 -84q8 -49 8 -119q0 -43 -4 -69q-4 -33 -31 -45q-47 -23 -153 -64q-109 -41 -156 -63q-86 -43 -121 -115t-35 -176zM139 1526l283 -285h104l-227 285h-160zM172 272q0 100 28.5 147.5t118.5 86.5 q18 8 58 24q119 47 178 80v-198q0 -76 -12.5 -139.5t-44.5 -112.5q-57 -84 -168 -84q-86 0 -122 52t-36 144z" />
<glyph unicode="&#xe1;" horiz-adv-x="796" d="M53 291q0 -72 11.5 -128.5t40 -100.5t80 -67.5t124.5 -23.5q76 0 141.5 31t108.5 90h2l4 -20q8 -37 18.5 -53.5t41.5 -28.5q33 -6 61 -6q39 0 70 12v86q-53 0 -67.5 14.5t-14.5 61.5v694q0 74 -10.5 125t-45.5 96q-37 47 -96 66.5t-137 19.5q-145 0 -223 -80t-78 -233 h115q4 18 6 31q6 43 14 71.5t25.5 53t51.5 39t87 14.5q74 0 111.5 -29t50.5 -84q8 -49 8 -119q0 -43 -4 -69q-4 -33 -31 -45q-47 -23 -153 -64q-109 -41 -156 -63q-86 -43 -121 -115t-35 -176zM172 272q0 100 28.5 147.5t118.5 86.5q18 8 58 24q119 47 178 80v-198 q0 -76 -12.5 -139.5t-44.5 -112.5q-57 -84 -168 -84q-86 0 -122 52t-36 144zM270 1241h105l282 285h-159z" />
<glyph unicode="&#xe2;" horiz-adv-x="796" d="M53 291q0 -72 11.5 -128.5t40 -100.5t80 -67.5t124.5 -23.5q76 0 141.5 31t108.5 90h2l4 -20q8 -37 18.5 -53.5t41.5 -28.5q33 -6 61 -6q39 0 70 12v86q-53 0 -67.5 14.5t-14.5 61.5v694q0 74 -10.5 125t-45.5 96q-37 47 -96 66.5t-137 19.5q-145 0 -223 -80t-78 -233 h115q4 18 6 31q6 43 14 71.5t25.5 53t51.5 39t87 14.5q74 0 111.5 -29t50.5 -84q8 -49 8 -119q0 -43 -4 -69q-4 -33 -31 -45q-47 -23 -153 -64q-109 -41 -156 -63q-86 -43 -121 -115t-35 -176zM98 1241h131l170 209l168 -209h133l-233 285h-137zM172 272q0 100 28.5 147.5 t118.5 86.5q18 8 58 24q119 47 178 80v-198q0 -76 -12.5 -139.5t-44.5 -112.5q-57 -84 -168 -84q-86 0 -122 52t-36 144z" />
<glyph unicode="&#xe3;" horiz-adv-x="796" d="M53 291q0 -72 11.5 -128.5t40 -100.5t80 -67.5t124.5 -23.5q76 0 141.5 31t108.5 90h2l4 -20q8 -37 18.5 -53.5t41.5 -28.5q33 -6 61 -6q39 0 70 12v86q-53 0 -67.5 14.5t-14.5 61.5v694q0 74 -10.5 125t-45.5 96q-37 47 -96 66.5t-137 19.5q-145 0 -223 -80t-78 -233 h115q4 18 6 31q6 43 14 71.5t25.5 53t51.5 39t87 14.5q74 0 111.5 -29t50.5 -84q8 -49 8 -119q0 -43 -4 -69q-4 -33 -31 -45q-47 -23 -153 -64q-109 -41 -156 -63q-86 -43 -121 -115t-35 -176zM78 1266h76q2 6 4 8q12 37 25.5 57.5t41.5 32.5q12 4 27 4q29 0 59.5 -11 t69.5 -28l14 -6q49 -25 84 -36t72 -11q26 0 57 8q51 25 79 76t34 115h-78q-10 -51 -28.5 -76t-59.5 -25q-18 0 -45 6q-31 8 -94 37q-53 25 -87 36t-67 11q-74 0 -123 -57t-61 -141zM172 272q0 100 28.5 147.5t118.5 86.5q18 8 58 24q119 47 178 80v-198q0 -76 -12.5 -139.5 t-44.5 -112.5q-57 -84 -168 -84q-86 0 -122 52t-36 144z" />
<glyph unicode="&#xe4;" horiz-adv-x="796" d="M53 291q0 -72 11.5 -128.5t40 -100.5t80 -67.5t124.5 -23.5q76 0 141.5 31t108.5 90h2l4 -20q8 -37 18.5 -53.5t41.5 -28.5q33 -6 61 -6q39 0 70 12v86q-53 0 -67.5 14.5t-14.5 61.5v694q0 74 -10.5 125t-45.5 96q-37 47 -96 66.5t-137 19.5q-145 0 -223 -80t-78 -233 h115q4 18 6 31q6 43 14 71.5t25.5 53t51.5 39t87 14.5q74 0 111.5 -29t50.5 -84q8 -49 8 -119q0 -43 -4 -69q-4 -33 -31 -45q-47 -23 -153 -64q-109 -41 -156 -63q-86 -43 -121 -115t-35 -176zM172 272q0 100 28.5 147.5t118.5 86.5q18 8 58 24q119 47 178 80v-198 q0 -76 -12.5 -139.5t-44.5 -112.5q-57 -84 -168 -84q-86 0 -122 52t-36 144zM172 1264h131v209h-131v-209zM496 1264h131v209h-131v-209z" />
<glyph unicode="&#xe5;" horiz-adv-x="796" d="M53 291q0 -72 11.5 -128.5t40 -100.5t80 -67.5t124.5 -23.5q76 0 141.5 31t108.5 90h2l4 -20q8 -37 18.5 -53.5t41.5 -28.5q33 -6 61 -6q39 0 70 12v86q-53 0 -67.5 14.5t-14.5 61.5v694q0 74 -10.5 125t-45.5 96q-37 47 -96 66.5t-137 19.5q-145 0 -223 -80t-78 -233 h115q4 18 6 31q6 43 14 71.5t25.5 53t51.5 39t87 14.5q74 0 111.5 -29t50.5 -84q8 -49 8 -119q0 -43 -4 -69q-4 -33 -31 -45q-47 -23 -153 -64q-109 -41 -156 -63q-86 -43 -121 -115t-35 -176zM172 272q0 100 28.5 147.5t118.5 86.5q18 8 58 24q119 47 178 80v-198 q0 -76 -12.5 -139.5t-44.5 -112.5q-57 -84 -168 -84q-86 0 -122 52t-36 144zM195 1425q0 -82 60 -143t142 -61t143.5 61t61.5 143t-61.5 143.5t-143.5 61.5t-142 -61.5t-60 -143.5zM262 1425q0 55 40 95.5t95 40.5t95 -41t40 -95q0 -53 -40.5 -94t-94.5 -41q-53 0 -94 40 t-41 95z" />
<glyph unicode="&#xe6;" horiz-adv-x="1251" d="M49 297q0 -76 11.5 -134.5t39 -101.5t78.5 -66.5t129 -23.5q190 0 297 168q61 -92 114.5 -130t153.5 -38q86 0 147.5 31t98.5 85t54.5 125t17.5 155h-115q-4 -61 -12 -110.5t-29.5 -90.5t-60.5 -65.5t-99 -24.5q-74 0 -118.5 42t-64 108.5t-24.5 134t-8 161.5v53h535 q0 131 -11.5 229.5t-44 179.5t-98 128t-172.5 47q-78 0 -130 -26.5t-103 -88.5q-41 61 -103.5 88t-144.5 27q-156 0 -226.5 -80t-80.5 -235h119q0 96 43 153.5t131 57.5q102 0 138 -52.5t36 -162.5q0 -53 -2 -77t-13.5 -39t-33 -26.5t-70.5 -29.5q-20 -8 -31 -11 q-129 -45 -192 -73q-78 -37 -117 -115t-39 -172zM168 260q0 84 25.5 146.5t93.5 87.5q33 16 98 38q53 18 88 34t66 40v-289q-6 -115 -58.5 -180t-158.5 -65q-80 0 -115 52t-39 136zM666 680q0 70 6 129t23.5 115.5t58.5 93.5t106 37q72 0 116 -35t65.5 -90.5t27.5 -116.5 t6 -133h-409z" />
<glyph unicode="&#xe7;" horiz-adv-x="796" d="M76 571q0 -119 8 -210t37 -177t91 -142t165 -67l-105 -143l31 -27q43 14 84 15q49 0 79 -20.5t30 -57.5q0 -49 -42 -72.5t-96 -23.5q-41 0 -120 26l-9 4l-30 -61q94 -39 184 -39q92 0 160.5 41t68.5 127q0 68 -46 107.5t-122 39.5q-8 0 -29.5 -4t-31.5 -8l-4 4l76 92 q145 12 211.5 123t66.5 277h-119v-4q-6 -68 -14 -113t-26.5 -87t-56.5 -68.5t-95 -26.5q-78 0 -126 45t-69.5 117.5t-26.5 145.5t-5 167q0 111 6 190.5t25.5 151.5t63.5 116t118 46q94 0 144 -75t54 -183h117q0 152 -81 257t-226 105q-111 0 -180.5 -54t-103.5 -140 t-45 -183.5t-11 -210.5z" />
<glyph unicode="&#xe8;" horiz-adv-x="796" d="M72 561q0 -117 9 -210t41 -181t100.5 -143.5t178.5 -55.5q84 0 144.5 32t98.5 87t55.5 127t17.5 152h-115q-4 -61 -12 -109.5t-28.5 -90.5t-59.5 -67.5t-99 -25.5q-72 0 -114.5 41t-64 110.5t-28 151.5t-6.5 192h531v115q0 88 -14.5 171t-51.5 151.5t-100 109.5t-158 41 q-111 0 -177 -57.5t-98 -147.5t-41 -186t-9 -207zM139 1526l283 -285h104l-227 285h-160zM190 676q0 63 7.5 124.5t29 120t62.5 96.5t106 38q68 0 111 -36t63.5 -94.5t26.5 -119t6 -129.5h-412z" />
<glyph unicode="&#xe9;" horiz-adv-x="796" d="M72 561q0 -117 9 -210t41 -181t100.5 -143.5t178.5 -55.5q84 0 144.5 32t98.5 87t55.5 127t17.5 152h-115q-4 -61 -12 -109.5t-28.5 -90.5t-59.5 -67.5t-99 -25.5q-72 0 -114.5 41t-64 110.5t-28 151.5t-6.5 192h531v115q0 88 -14.5 171t-51.5 151.5t-100 109.5t-158 41 q-111 0 -177 -57.5t-98 -147.5t-41 -186t-9 -207zM190 676q0 63 7.5 124.5t29 120t62.5 96.5t106 38q68 0 111 -36t63.5 -94.5t26.5 -119t6 -129.5h-412zM270 1241h105l282 285h-159z" />
<glyph unicode="&#xea;" horiz-adv-x="796" d="M72 561q0 -117 9 -210t41 -181t100.5 -143.5t178.5 -55.5q84 0 144.5 32t98.5 87t55.5 127t17.5 152h-115q-4 -61 -12 -109.5t-28.5 -90.5t-59.5 -67.5t-99 -25.5q-72 0 -114.5 41t-64 110.5t-28 151.5t-6.5 192h531v115q0 88 -14.5 171t-51.5 151.5t-100 109.5t-158 41 q-111 0 -177 -57.5t-98 -147.5t-41 -186t-9 -207zM98 1241h131l170 209l168 -209h133l-233 285h-137zM190 676q0 63 7.5 124.5t29 120t62.5 96.5t106 38q68 0 111 -36t63.5 -94.5t26.5 -119t6 -129.5h-412z" />
<glyph unicode="&#xeb;" horiz-adv-x="796" d="M72 561q0 -117 9 -210t41 -181t100.5 -143.5t178.5 -55.5q84 0 144.5 32t98.5 87t55.5 127t17.5 152h-115q-4 -61 -12 -109.5t-28.5 -90.5t-59.5 -67.5t-99 -25.5q-72 0 -114.5 41t-64 110.5t-28 151.5t-6.5 192h531v115q0 88 -14.5 171t-51.5 151.5t-100 109.5t-158 41 q-111 0 -177 -57.5t-98 -147.5t-41 -186t-9 -207zM172 1264h131v209h-131v-209zM190 676q0 63 7.5 124.5t29 120t62.5 96.5t106 38q68 0 111 -36t63.5 -94.5t26.5 -119t6 -129.5h-412zM496 1264h131v209h-131v-209z" />
<glyph unicode="&#xec;" horiz-adv-x="409" d="M-53 1526l282 -285h105l-228 285h-159zM145 0h119v1130h-119v-1130z" />
<glyph unicode="&#xed;" horiz-adv-x="409" d="M78 1241h104l283 285h-160zM145 0h119v1130h-119v-1130z" />
<glyph unicode="&#xee;" horiz-adv-x="409" d="M-117 1241h131l170 209l168 -209h133l-233 285h-137zM145 0h119v1130h-119v-1130z" />
<glyph unicode="&#xef;" horiz-adv-x="409" d="M-20 1264h131v209h-131v-209zM145 0h119v1130h-119v-1130zM303 1264h131v209h-131v-209z" />
<glyph unicode="&#xf0;" d="M98 592q0 -131 8.5 -229.5t42 -188.5t108.5 -146.5t198 -56.5q113 0 184.5 53.5t108 138.5t50 182t13.5 206v22q0 272 -81 482.5t-263 406.5l151 105l-49 57l-149 -104q-37 35 -80 72.5t-74 62.5l-73 -64q43 -37 83.5 -72.5t57.5 -56.5l-154 -106l51 -58l154 107 q57 -63 109.5 -137t83.5 -133l-5 -5q-49 29 -118 29q-111 0 -182.5 -50t-109.5 -132t-51.5 -179.5t-13.5 -205.5zM217 590q0 78 6 152.5t28.5 146.5t70 119t122.5 47q86 0 137.5 -48.5t75 -122t29.5 -149.5t6 -168t-5 -167.5t-27.5 -150.5t-73.5 -124t-135 -49 q-82 0 -131.5 46t-71 119.5t-26.5 153.5t-5 195z" />
<glyph unicode="&#xf1;" d="M133 0h119v834q0 92 73.5 156.5t166.5 64.5q57 0 90.5 -17.5t49 -48.5t20.5 -71.5t5 -96.5v-821h119v897q0 119 -75.5 190.5t-188.5 71.5q-80 0 -145.5 -37t-110.5 -102h-4v110h-119v-1130zM135 1266h76q2 6 4 8q12 37 25.5 57.5t42.5 32.5q12 4 26 4q29 0 59.5 -11 t69.5 -28l15 -6q49 -25 83.5 -36t71.5 -11q27 0 58 8q51 25 78.5 76t33.5 115h-78q-10 -51 -28.5 -76t-59.5 -25q-18 0 -45 6q-31 8 -94 37q-53 25 -87 36t-67 11q-74 0 -123 -57t-61 -141z" />
<glyph unicode="&#xf2;" d="M100 592q0 -133 8.5 -229.5t42 -187.5t107.5 -147.5t195 -56.5q117 0 189.5 54.5t108 141.5t48 186.5t12.5 215.5q0 111 -12.5 209.5t-48 186.5t-107.5 141t-184 53q-111 0 -183.5 -50t-110.5 -132t-51.5 -179.5t-13.5 -205.5zM197 1526l282 -285h105l-228 285h-159z M219 590q0 78 7 152.5t28.5 146.5t68 119t121.5 47q86 0 137.5 -48.5t75 -122t29.5 -149.5t6 -168t-5 -167.5t-27.5 -150.5t-73.5 -124t-135 -49q-78 0 -126.5 45t-71 119.5t-28.5 156.5t-6 193z" />
<glyph unicode="&#xf3;" d="M100 592q0 -133 8.5 -229.5t42 -187.5t107.5 -147.5t195 -56.5q117 0 189.5 54.5t108 141.5t48 186.5t12.5 215.5q0 111 -12.5 209.5t-48 186.5t-107.5 141t-184 53q-111 0 -183.5 -50t-110.5 -132t-51.5 -179.5t-13.5 -205.5zM219 590q0 78 7 152.5t28.5 146.5t68 119 t121.5 47q86 0 137.5 -48.5t75 -122t29.5 -149.5t6 -168t-5 -167.5t-27.5 -150.5t-73.5 -124t-135 -49q-78 0 -126.5 45t-71 119.5t-28.5 156.5t-6 193zM328 1241h104l283 285h-160z" />
<glyph unicode="&#xf4;" d="M100 592q0 -133 8.5 -229.5t42 -187.5t107.5 -147.5t195 -56.5q117 0 189.5 54.5t108 141.5t48 186.5t12.5 215.5q0 111 -12.5 209.5t-48 186.5t-107.5 141t-184 53q-111 0 -183.5 -50t-110.5 -132t-51.5 -179.5t-13.5 -205.5zM156 1241h131l170 209l168 -209h133 l-234 285h-137zM219 590q0 78 7 152.5t28.5 146.5t68 119t121.5 47q86 0 137.5 -48.5t75 -122t29.5 -149.5t6 -168t-5 -167.5t-27.5 -150.5t-73.5 -124t-135 -49q-78 0 -126.5 45t-71 119.5t-28.5 156.5t-6 193z" />
<glyph unicode="&#xf5;" d="M100 592q0 -133 8.5 -229.5t42 -187.5t107.5 -147.5t195 -56.5q117 0 189.5 54.5t108 141.5t48 186.5t12.5 215.5q0 111 -12.5 209.5t-48 186.5t-107.5 141t-184 53q-111 0 -183.5 -50t-110.5 -132t-51.5 -179.5t-13.5 -205.5zM135 1266h76q2 6 4 8q12 37 25.5 57.5 t42.5 32.5q12 4 26 4q29 0 59.5 -11t69.5 -28l15 -6q49 -25 83.5 -36t71.5 -11q27 0 58 8q51 25 78.5 76t33.5 115h-78q-10 -51 -28.5 -76t-59.5 -25q-18 0 -45 6q-31 8 -94 37q-53 25 -87 36t-67 11q-74 0 -123 -57t-61 -141zM219 590q0 78 7 152.5t28.5 146.5t68 119 t121.5 47q86 0 137.5 -48.5t75 -122t29.5 -149.5t6 -168t-5 -167.5t-27.5 -150.5t-73.5 -124t-135 -49q-78 0 -126.5 45t-71 119.5t-28.5 156.5t-6 193z" />
<glyph unicode="&#xf6;" d="M100 592q0 -133 8.5 -229.5t42 -187.5t107.5 -147.5t195 -56.5q117 0 189.5 54.5t108 141.5t48 186.5t12.5 215.5q0 111 -12.5 209.5t-48 186.5t-107.5 141t-184 53q-111 0 -183.5 -50t-110.5 -132t-51.5 -179.5t-13.5 -205.5zM219 590q0 78 7 152.5t28.5 146.5t68 119 t121.5 47q86 0 137.5 -48.5t75 -122t29.5 -149.5t6 -168t-5 -167.5t-27.5 -150.5t-73.5 -124t-135 -49q-78 0 -126.5 45t-71 119.5t-28.5 156.5t-6 193zM229 1264h131v209h-131v-209zM553 1264h131v209h-131v-209z" />
<glyph unicode="&#xf7;" d="M43 451h825v104h-825v-104zM391 0h131v209h-131v-209zM391 797h131v209h-131v-209z" />
<glyph unicode="&#xf8;" d="M-6 -37l69 -49l125 188q39 -61 104.5 -96t160.5 -35q117 0 189.5 54.5t108 141.5t48 186.5t12.5 215.5q0 113 -12.5 209t-44.5 176l125 187l-80 43l-92 -142q-43 55 -103.5 86t-144.5 31q-111 0 -183.5 -50t-110.5 -132t-51.5 -179.5t-13.5 -205.5q0 -129 8.5 -224.5 t36.5 -174.5zM219 590q0 78 7 152.5t28.5 146.5t68 119t121.5 47q70 0 116 -32t75 -87l-402 -610q-8 55 -11 113.5t-3 150.5zM262 213l410 616q14 -61 17 -121.5t3 -140.5q0 -92 -5 -167.5t-27.5 -150.5t-73.5 -124t-135 -49q-70 0 -116 35.5t-73 101.5z" />
<glyph unicode="&#xf9;" d="M123 295q0 -72 10 -129t38 -101.5t78 -69t124 -24.5q186 0 284 133h5v-104h114v1130h-119v-860q-29 -78 -89 -135t-128 -59h-14h-14q-90 0 -130 48t-40 150v856h-119v-835zM197 1526l282 -285h105l-228 285h-159z" />
<glyph unicode="&#xfa;" d="M123 295q0 -72 10 -129t38 -101.5t78 -69t124 -24.5q186 0 284 133h5v-104h114v1130h-119v-860q-29 -78 -89 -135t-128 -59h-14h-14q-90 0 -130 48t-40 150v856h-119v-835zM328 1241h104l283 285h-160z" />
<glyph unicode="&#xfb;" d="M123 295q0 -72 10 -129t38 -101.5t78 -69t124 -24.5q186 0 284 133h5v-104h114v1130h-119v-860q-29 -78 -89 -135t-128 -59h-14h-14q-90 0 -130 48t-40 150v856h-119v-835zM156 1221h131l170 209l168 -209h133l-234 284h-137z" />
<glyph unicode="&#xfc;" d="M123 295q0 -72 10 -129t38 -101.5t78 -69t124 -24.5q186 0 284 133h5v-104h114v1130h-119v-860q-29 -78 -89 -135t-128 -59h-14h-14q-90 0 -130 48t-40 150v856h-119v-835zM229 1264h131v209h-131v-209zM553 1264h131v209h-131v-209z" />
<glyph unicode="&#xfd;" horiz-adv-x="796" d="M35 1130l293 -1134q-29 -123 -66 -207q-20 -41 -57 -56.5t-88 -15.5h-31q-20 2 -29 2v-104q14 0 41 -2q43 -4 62 -4q68 0 119 29q66 41 101.5 128t68.5 216l8 32l307 1116h-121l-246 -915h-4l-233 915h-125zM270 1241h105l282 285h-159z" />
<glyph unicode="&#xfe;" d="M119 -389h119v481h4q86 -121 235 -121q111 0 179.5 58.5t100 151.5t41 191.5t9.5 221.5q0 111 -11.5 204t-46 176t-103 134t-179.5 51q-70 0 -127 -34.5t-98 -96.5h-4v508h-119v-1925zM238 565q0 88 5 161t25.5 149.5t67.5 128t127 51.5t127 -51.5t67.5 -128t25.5 -149.5 t5 -161t-5 -160.5t-25.5 -149.5t-67.5 -128t-127 -51t-127 51t-67.5 128t-25.5 149.5t-5 160.5z" />
<glyph unicode="&#xff;" horiz-adv-x="796" d="M35 1130l293 -1134q-29 -123 -66 -207q-20 -41 -57 -56.5t-88 -15.5h-31q-20 2 -29 2v-104q14 0 41 -2q43 -4 62 -4q68 0 119 29q66 41 101.5 128t68.5 216l8 32l307 1116h-121l-246 -915h-4l-233 915h-125zM172 1264h131v209h-131v-209zM496 1264h131v209h-131v-209z " />
<glyph unicode="&#x152;" horiz-adv-x="1593" d="M115 774q0 -135 10 -261t47 -253t118 -212t210 -85t194.5 43t118.5 160h4v-166h694v119h-561v614h506v119h-506v565h553v119h-686v-174h-4q-41 104 -110.5 157.5t-176.5 53.5q-143 0 -229 -77t-125 -196.5t-48 -242.5t-9 -283zM248 819q0 115 6 210t31.5 194.5t83 165 t153.5 65.5q100 0 160.5 -62.5t89.5 -164t37 -214t8 -253.5q0 -137 -7 -247t-33.5 -209t-83 -160.5t-146.5 -61.5q-100 0 -160.5 60.5t-90.5 163t-39 224t-9 289.5z" />
<glyph unicode="&#x153;" horiz-adv-x="1366" d="M76 575q0 -127 8 -221t39 -183t100.5 -144.5t184.5 -55.5q203 0 284 179q80 -178 273 -179q86 0 145 31t96 85t53.5 124t18.5 154h-115q-2 -55 -11 -105.5t-30.5 -91.5t-59.5 -66.5t-95 -25.5q-72 0 -116 41t-64.5 110.5t-26.5 151.5t-6 194h526v113q0 94 -12.5 175 t-46 148.5t-96 108.5t-156.5 41q-106 0 -169 -40t-106 -138q-76 178 -268 178q-113 0 -184.5 -53t-107.5 -138t-47 -182.5t-11 -210.5zM195 520q0 119 7 207t28.5 163t67.5 120t122 45q74 0 119 -44t65.5 -114t25.5 -145.5t5 -173.5q0 -106 -6 -187.5t-27.5 -154 t-68.5 -116.5t-123 -44q-72 0 -116 45t-65.5 114.5t-27.5 140t-6 144.5zM758 678v2q2 70 9 129t26.5 115.5t59.5 93.5t105 37q70 -2 111 -35t61.5 -87t25.5 -114.5t5 -140.5h-403z" />
<glyph unicode="&#x178;" horiz-adv-x="1024" d="M39 1536l405 -883v-653h134v653l409 883h-139l-338 -731l-324 731h-147zM287 1669h131v209h-131v-209zM610 1669h131v209h-131v-209z" />
<glyph unicode="&#x2c6;" horiz-adv-x="681" d="M41 1241h131l170 209l168 -209h133l-233 285h-138z" />
<glyph unicode="&#x2dc;" horiz-adv-x="681" d="M20 1266h76q2 6 4 8q12 37 25.5 57.5t42.5 32.5q12 4 27 4q29 0 59.5 -11t69.5 -28l14 -6q49 -25 84 -36t72 -11q26 0 57 8q51 25 78.5 76t34.5 115h-78q-10 -51 -28.5 -76t-59.5 -25q-18 0 -45 6q-31 8 -95 37q-53 25 -86.5 36t-66.5 11q-74 0 -123 -57t-62 -141z" />
<glyph unicode="&#x2000;" horiz-adv-x="1009" />
<glyph unicode="&#x2001;" horiz-adv-x="2019" />
<glyph unicode="&#x2002;" horiz-adv-x="1009" />
<glyph unicode="&#x2003;" horiz-adv-x="2019" />
<glyph unicode="&#x2004;" horiz-adv-x="673" />
<glyph unicode="&#x2005;" horiz-adv-x="504" />
<glyph unicode="&#x2006;" horiz-adv-x="336" />
<glyph unicode="&#x2007;" horiz-adv-x="336" />
<glyph unicode="&#x2008;" horiz-adv-x="252" />
<glyph unicode="&#x2009;" horiz-adv-x="403" />
<glyph unicode="&#x200a;" horiz-adv-x="112" />
<glyph unicode="&#x2010;" horiz-adv-x="681" d="M72 551h530v119h-530v-119z" />
<glyph unicode="&#x2011;" horiz-adv-x="681" d="M72 551h530v119h-530v-119z" />
<glyph unicode="&#x2012;" horiz-adv-x="681" d="M72 551h530v119h-530v-119z" />
<glyph unicode="&#x2013;" horiz-adv-x="1024" d="M0 559h1024v105h-1024v-105z" />
<glyph unicode="&#x2014;" horiz-adv-x="2048" d="M0 559h2048v105h-2048v-105z" />
<glyph unicode="&#x2018;" horiz-adv-x="327" d="M86 1077h141v180h-61v27q0 78 11 119t50 57v76q-68 -18 -98.5 -62t-38.5 -137q-4 -49 -4 -145v-115z" />
<glyph unicode="&#x2019;" horiz-adv-x="327" d="M100 1077q70 18 99.5 63.5t38.5 135.5q4 49 4 145v115h-142v-180h62v-27q0 -78 -11.5 -119t-50.5 -57v-76z" />
<glyph unicode="&#x201a;" horiz-adv-x="454" d="M158 0h61v-27q0 -78 -11 -118.5t-50 -57.5v-76q70 18 99.5 62.5t37.5 136.5q4 49 4 146v114h-141v-180z" />
<glyph unicode="&#x201c;" horiz-adv-x="681" d="M174 1077h141v180h-61v27q0 78 11 119t50 57v76q-68 -18 -98.5 -62t-38.5 -137q-4 -49 -4 -145v-115zM440 1077h142v180h-62v27q0 78 11.5 119t50.5 57v76q-68 -18 -98.5 -62t-39.5 -137q-4 -49 -4 -145v-115z" />
<glyph unicode="&#x201d;" horiz-adv-x="681" d="M100 1077q70 18 99.5 63.5t38.5 135.5q4 49 4 145v115h-142v-180h62v-27q0 -78 -11.5 -119t-50.5 -57v-76zM367 1077q70 18 99.5 63.5t37.5 135.5q4 49 4 145v115h-141v-180h61v-27q0 -78 -11 -119t-50 -57v-76z" />
<glyph unicode="&#x201e;" horiz-adv-x="675" d="M135 0h62v-27q0 -78 -11.5 -118.5t-50.5 -57.5v-76q70 18 99.5 62.5t37.5 136.5q4 49 4 146v114h-141v-180zM401 0h62v-27q0 -78 -11.5 -118.5t-50.5 -57.5v-76q70 18 99.5 62.5t38.5 136.5q4 49 4 146v114h-142v-180z" />
<glyph unicode="&#x2022;" horiz-adv-x="1241" d="M238 768q0 -76 29.5 -145.5t82.5 -123t123 -83t145 -29.5q78 0 148 29.5t124 83t84 123t30 145.5q0 78 -30 148.5t-83 124t-124 83t-149 29.5q-76 0 -145.5 -29.5t-122.5 -84t-82.5 -124t-29.5 -147.5z" />
<glyph unicode="&#x2026;" horiz-adv-x="2048" d="M272 0h142v180h-142v-180zM954 0h142v180h-142v-180zM1636 0h142v180h-142v-180z" />
<glyph unicode="&#x202f;" horiz-adv-x="403" />
<glyph unicode="&#x2039;" horiz-adv-x="681" d="M184 483l289 -217v127l-207 162l207 166v123l-289 -217v-144z" />
<glyph unicode="&#x203a;" horiz-adv-x="681" d="M209 266l289 217v144l-289 217v-123l209 -166l-209 -162v-127z" />
<glyph unicode="&#x205f;" horiz-adv-x="504" />
<glyph unicode="&#x2122;" horiz-adv-x="1478" d="M117 1432h188v-758h105v758h188v104h-481v-104zM690 674h105v753h4l190 -753h74l192 753h5v-753h104v862h-176l-160 -608h-4l-154 608h-180v-862z" />
<glyph unicode="&#x25fc;" horiz-adv-x="1126" d="M0 0v1126h1126v-1126h-1126z" />
</font>
</defs>
</svg>
